Coordinates
version=1
nRows=21
nColumns=12
inDegrees=yes

Units are S.I. units (second, meters, Newtons, ...)
Angles are in degrees

endheader
time	SC_y	SC_z	SC_x	AC_y	AC_z	AC_x	GH_y	GH_z	GH_yy	EL_x	PS_y
       0.0              -16.57          33.12          75.29           59.7        0.03826          17.49          103.4         -17.29         -154.3          74.45          126.3
    0.0175              -16.57          33.12          75.28           59.7        0.03693          17.48          103.4         -17.28         -154.3          74.44          126.3
     0.035              -16.57          33.12          75.27          59.69        0.03552          17.48          103.4         -17.26         -154.2          74.43          126.3
    0.0525              -16.58          33.12          75.26          59.69        0.03402          17.48          103.4         -17.24         -154.2          74.42          126.3
   0.07001              -16.58          33.12          75.26          59.69        0.03242          17.48          103.4         -17.23         -154.2          74.41          126.3
   0.08751              -16.58          33.12          75.25          59.68        0.03071          17.48          103.4         -17.21         -154.1           74.4          126.3
     0.105              -16.59          33.12          75.24          59.68        0.02889          17.48          103.4         -17.19         -154.1          74.39          126.3
    0.1225              -16.59          33.12          75.23          59.68        0.02694          17.48          103.4         -17.16         -154.0          74.38          126.3
      0.14               -16.6          33.12          75.21          59.67        0.02486          17.48          103.4         -17.14         -154.0          74.36          126.3
    0.1575               -16.6          33.12           75.2          59.67        0.02262          17.48          103.4         -17.11         -153.9          74.35          126.3
     0.175              -16.61          33.12          75.19          59.66        0.02022          17.47          103.4         -17.09         -153.9          74.33          126.3
    0.1925              -16.61          33.12          75.17          59.65        0.01763          17.47          103.4         -17.06         -153.8          74.31          126.3
      0.21              -16.62          33.12          75.16          59.65        0.01485          17.47          103.4         -17.02         -153.8           74.3          126.3
    0.2275              -16.62          33.12          75.14          59.64        0.01184          17.47          103.5         -16.99         -153.7          74.28          126.3
     0.245              -16.63          33.12          75.13          59.63       0.008577          17.47          103.5         -16.95         -153.6          74.25          126.3
    0.2625              -16.64          33.12          75.11          59.63       0.005044          17.47          103.5         -16.91         -153.5          74.23          126.3
      0.28              -16.65          33.12          75.09          59.62       0.001204          17.46          103.5         -16.87         -153.4          74.21          126.3
    0.2975              -16.65          33.12          75.06          59.61      -0.002979          17.46          103.5         -16.82         -153.4          74.18          126.3
     0.315              -16.66          33.12          75.04           59.6      -0.007547          17.46          103.5         -16.76         -153.3          74.15          126.3
    0.3325              -16.67          33.12          75.01          59.59       -0.01255          17.46          103.5         -16.71         -153.1          74.11          126.3
      0.35              -16.69          33.12          74.98          59.58       -0.01804          17.45          103.5         -16.64         -153.0          74.08          126.3
